<svg width="20" height="20" viewBox="0 0 20 20" fill="none" xmlns="http://www.w3.org/2000/svg">
<rect width="20" height="20" rx="1.66667" fill="white"/>
<path d="M11.3594 5H8.46387C8.3671 5 8.28959 5.07811 8.28747 5.17519C8.22899 7.90414 6.80631 10.4942 4.35761 12.3288C4.27987 12.387 4.26216 12.4964 4.319 12.5752L6.01314 14.9261C6.07078 15.0061 6.18307 15.0242 6.26212 14.9654C7.79322 13.8258 9.02476 12.451 9.91164 10.9272C10.7985 12.451 12.0301 13.8258 13.5612 14.9654C13.6402 15.0242 13.7525 15.0061 13.8102 14.9261L15.5044 12.5752C15.5611 12.4964 15.5434 12.387 15.4658 12.3288C13.017 10.4942 11.5943 7.90414 11.5359 5.17519C11.5338 5.07811 11.4562 5 11.3594 5Z" fill="#FF875B"/>
<rect x="0.138889" y="0.138889" width="19.7222" height="19.7222" rx="1.52778" stroke="black" stroke-opacity="0.04" stroke-width="0.277778"/>
</svg>
