<svg width="1440" height="685" viewBox="0 0 1440 685" fill="none" xmlns="http://www.w3.org/2000/svg">
<rect width="1440" height="685" fill="url(#paint0_linear_8_63)"/>
<mask id="mask0_8_63" style="mask-type:alpha" maskUnits="userSpaceOnUse" x="0" y="60" width="1440" height="625">
<rect y="60" width="1440" height="625" fill="url(#paint1_linear_8_63)"/>
</mask>
<g mask="url(#mask0_8_63)">
<path fill-rule="evenodd" clip-rule="evenodd" d="M606.132 -44.8381C606.318 -45.0415 606.635 -45.0551 606.838 -44.8684C634.143 -19.8113 682.758 17.4131 739.834 47.6206C796.918 77.8325 862.406 100.994 923.476 98.0006C961.914 96.1164 1002.76 117.842 1045.25 148.862C1066.5 164.38 1088.2 182.245 1110.24 200.685C1113.99 203.821 1117.74 206.974 1121.51 210.135L1121.51 210.136C1139.9 225.562 1158.51 241.178 1177.31 255.982C1222.62 291.664 1268.92 322.575 1315.55 334.688C1362.13 346.79 1409.06 340.134 1455.68 300.619C1455.89 300.44 1456.2 300.466 1456.38 300.677C1456.56 300.887 1456.53 301.203 1456.32 301.381C1409.44 341.116 1362.18 347.835 1315.3 335.656C1268.45 323.487 1222.01 292.461 1176.69 256.768C1157.88 241.954 1139.25 226.326 1120.87 210.901C1117.1 207.74 1113.34 204.587 1109.6 201.452C1087.56 183.013 1065.89 165.167 1044.66 149.669C1002.18 118.658 961.586 97.1336 923.524 98.9994C862.194 102.006 796.515 78.7509 739.366 48.5044C682.208 18.2536 633.524 -19.022 606.162 -44.1316C605.958 -44.3183 605.945 -44.6346 606.132 -44.8381ZM229.756 -0.436172C229.996 -0.571171 230.301 -0.485325 230.436 -0.244431C258.186 49.2731 356.577 144.783 527.957 130.002C635.366 120.738 702.979 157.68 762.935 191.878C764.273 192.641 765.606 193.403 766.937 194.162L767.247 194.339C825.418 227.557 876.942 256.979 951.874 237.516C990.605 227.456 1025.46 243.388 1060.28 271.564C1084.48 291.14 1108.73 316.686 1134.31 343.635L1134.31 343.637C1145.54 355.458 1157.01 367.548 1168.86 379.523C1246.58 458.128 1340.15 531.94 1480.87 493.518C1481.13 493.445 1481.41 493.602 1481.48 493.868C1481.55 494.135 1481.4 494.41 1481.13 494.482C1339.85 533.06 1245.92 458.872 1168.14 380.227C1156.26 368.212 1144.76 356.099 1133.53 344.266C1107.97 317.343 1083.8 291.875 1059.65 272.342C1024.92 244.237 990.394 228.544 952.126 238.484C876.796 258.05 824.946 228.441 766.831 195.254L766.71 195.184L766.576 195.108L766.431 195.025L766.342 194.974L766.215 194.902C764.96 194.185 763.701 193.466 762.44 192.747C702.521 158.57 635.134 121.762 528.043 130.998C356.223 145.817 257.481 50.0603 229.564 0.244438C229.429 0.00354385 229.515 -0.301178 229.756 -0.436172ZM-0.226076 53.054C0.0202312 52.9292 0.321114 53.0276 0.445965 53.2739C12.6707 77.3907 38.1618 115.22 74.8827 150.263C111.603 185.306 159.525 217.538 216.611 230.512C277.694 244.395 315.545 261.474 353.959 278.806L353.96 278.807C360.546 281.779 367.15 284.758 373.889 287.73C419.918 308.028 472.376 328.014 569.576 343.006C618.181 350.503 660.978 354.127 699.564 356.696C710.878 357.45 721.832 358.113 732.466 358.756L732.472 358.757L732.476 358.757L732.479 358.757L732.482 358.757L732.483 358.758L732.485 358.758C758.103 360.308 781.86 361.746 804.301 364.065C867.855 370.633 920.958 384.278 976.308 427.606C1002.54 448.138 1025.24 475.132 1049.6 504.089L1051.18 505.968C1052 506.942 1052.82 507.918 1053.65 508.897C1079.57 539.678 1107.67 572.394 1144.06 601.861C1216.83 660.773 1322.83 706.746 1510.98 698.001C1511.25 697.988 1511.49 698.201 1511.5 698.477C1511.51 698.753 1511.3 698.987 1511.02 698.999C1322.67 707.754 1216.42 661.727 1143.44 602.639C1106.96 573.106 1078.81 540.322 1052.88 509.541C1052 508.495 1051.12 507.452 1050.25 506.411L1048.86 504.76C1024.48 475.777 1001.83 448.859 975.692 428.394C920.542 385.222 867.645 371.617 804.199 365.06C781.777 362.743 758.051 361.307 732.44 359.757C721.799 359.113 710.832 358.449 699.498 357.694C660.897 355.123 618.069 351.497 569.424 343.994C472.124 328.986 419.582 308.972 373.486 288.645C366.738 285.669 360.13 282.688 353.54 279.715C315.133 262.385 277.37 245.347 216.389 231.488C159.075 218.462 110.997 186.111 74.1923 150.987C37.3882 115.864 11.8293 77.9427 -0.445988 53.7261C-0.570839 53.4798 -0.472382 53.1789 -0.226076 53.054ZM-26.7196 428.914C-24.2214 427.222 -19.773 425.538 -13.1668 424.465C-6.57086 423.395 2.1423 422.938 13.1416 423.674C35.1401 425.145 66.2582 431.381 107.824 446.968C133.915 456.752 162.715 458.219 196.321 458.672C201.231 458.738 206.243 458.783 211.366 458.828L211.384 458.828C241.341 459.094 275.065 459.394 313.938 464.246C404.97 475.609 524.266 511.948 689.207 631.405C771.719 691.164 826.003 722.844 867.027 740.677C907.543 758.289 935.113 762.389 964.114 766.702L965.239 766.87C994.63 771.242 1025.69 776.016 1073.43 795.432C1121.18 814.852 1185.61 848.927 1281.73 911.918C1281.96 912.07 1282.27 912.005 1282.42 911.774C1282.57 911.543 1282.5 911.233 1282.27 911.082C1186.14 848.073 1121.64 813.96 1073.81 794.506C1025.96 775.046 994.808 770.258 965.386 765.88L964.268 765.714C935.285 761.404 907.821 757.32 867.426 739.76C826.497 721.969 772.281 690.336 689.793 630.595C524.734 511.052 405.28 474.641 314.062 463.254C275.127 458.394 241.342 458.094 211.385 457.828L211.376 457.828L211.367 457.828L211.357 457.828L211.346 457.828C206.233 457.782 201.232 457.738 196.335 457.672C162.722 457.219 134.085 455.748 108.176 446.032C66.5418 430.419 35.3266 424.155 13.2083 422.676C2.14934 421.937 -6.64166 422.393 -13.327 423.478C-20.002 424.562 -24.6119 426.278 -27.2804 428.086C-27.5091 428.241 -27.5688 428.552 -27.414 428.78C-27.2591 429.009 -26.9482 429.069 -26.7196 428.914ZM1074.47 -23.6814C1074.37 -23.9387 1074.08 -24.0661 1073.82 -23.9659C1073.56 -23.8657 1073.43 -23.5759 1073.53 -23.3186C1107.59 64.1643 1244.24 243.683 1518.47 262.499C1518.74 262.518 1518.98 262.31 1519 262.034C1519.02 261.759 1518.81 261.52 1518.53 261.501C1244.76 242.717 1108.41 63.5024 1074.47 -23.6814ZM1281.82 -23.9659C1282.08 -24.0661 1282.37 -23.9387 1282.47 -23.6814C1316.41 63.5024 1452.76 242.717 1726.53 261.501C1726.81 261.52 1727.02 261.759 1727 262.034C1726.98 262.31 1726.74 262.518 1726.47 262.499C1452.24 243.683 1315.59 64.1643 1281.53 -23.3186C1281.43 -23.5759 1281.56 -23.8657 1281.82 -23.9659ZM553.752 796.068C489.9 758.758 394.929 739.252 294.145 735.313C193.348 731.374 86.6697 743.003 -0.637712 768.019C-0.903173 768.095 -1.05671 768.372 -0.980646 768.638C-0.904583 768.903 -0.627724 769.057 -0.362265 768.981C86.8304 743.997 193.402 732.376 294.105 736.312C394.821 740.248 489.6 759.742 553.248 796.932C604.322 826.775 700.433 855.08 787.889 875.025C831.628 885 873.224 892.889 905.972 897.837C922.346 900.31 936.513 902.049 947.634 902.946C958.73 903.84 966.856 903.902 971.105 902.989C971.375 902.931 971.547 902.665 971.489 902.395C971.431 902.125 971.165 901.953 970.895 902.011C966.811 902.889 958.827 902.845 947.714 901.949C936.625 901.055 922.482 899.319 906.122 896.848C873.401 891.905 831.83 884.021 788.111 874.05C700.65 854.104 604.678 825.825 553.752 796.068Z" fill="url(#paint2_linear_8_63)"/>
</g>
<defs>
<linearGradient id="paint0_linear_8_63" x1="0" y1="685" x2="1196.01" y2="-297.125" gradientUnits="userSpaceOnUse">
<stop stop-color="#010A09"/>
<stop offset="1" stop-color="#00393A"/>
</linearGradient>
<linearGradient id="paint1_linear_8_63" x1="0" y1="685" x2="1106.35" y2="-310.718" gradientUnits="userSpaceOnUse">
<stop stop-color="#010A09"/>
<stop offset="1" stop-color="#00393A"/>
</linearGradient>
<linearGradient id="paint2_linear_8_63" x1="1394.19" y1="5.94682" x2="34.3626" y2="913.095" gradientUnits="userSpaceOnUse">
<stop stop-color="#1D4444"/>
<stop offset="1" stop-color="#1D4444" stop-opacity="0"/>
</linearGradient>
</defs>
</svg>
