<svg width="168" height="32" viewBox="0 0 168 32" fill="none" xmlns="http://www.w3.org/2000/svg">
<path d="M39.1721 8.85094H43.8938L48.8808 21.0177H49.093L54.08 8.85094H58.8017V26.9596H55.088V15.1731H54.9377L50.2513 26.8712H47.7225L43.0361 15.1289H42.8858V26.9596H39.1721V8.85094Z" fill="white"/>
<path d="M65.7582 27.2161C64.8917 27.2161 64.1195 27.0657 63.4416 26.7651C62.7637 26.4586 62.2273 26.0076 61.8323 25.4123C61.4433 24.811 61.2487 24.0624 61.2487 23.1664C61.2487 22.4118 61.3873 21.7781 61.6643 21.2653C61.9414 20.7525 62.3186 20.3398 62.7961 20.0274C63.2736 19.715 63.8159 19.4792 64.4231 19.32C65.0361 19.1609 65.6786 19.0489 66.3506 18.984C67.1405 18.9015 67.7772 18.8249 68.2605 18.7541C68.7439 18.6775 69.0947 18.5655 69.3128 18.4181C69.5309 18.2708 69.6399 18.0527 69.6399 17.7638V17.7108C69.6399 17.1508 69.4631 16.7175 69.1094 16.411C68.7616 16.1044 68.2664 15.9512 67.6239 15.9512C66.946 15.9512 66.4066 16.1015 66.0058 16.4021C65.605 16.6969 65.3397 17.0682 65.21 17.5162L61.7262 17.2333C61.903 16.408 62.2508 15.6948 62.7696 15.0935C63.2883 14.4863 63.9574 14.0206 64.7767 13.6964C65.602 13.3663 66.557 13.2013 67.6416 13.2013C68.3961 13.2013 69.1182 13.2897 69.8079 13.4665C70.5035 13.6434 71.1195 13.9175 71.6559 14.2889C72.1982 14.6602 72.6256 15.1377 72.938 15.7213C73.2505 16.299 73.4067 16.9916 73.4067 17.7992V26.9596H69.8344V25.0763H69.7283C69.5102 25.5007 69.2184 25.875 68.853 26.1992C68.4875 26.5175 68.0483 26.7681 67.5355 26.9508C67.0226 27.1276 66.4302 27.2161 65.7582 27.2161ZM66.837 24.6165C67.3911 24.6165 67.8803 24.5074 68.3048 24.2893C68.7292 24.0653 69.0622 23.7647 69.3039 23.3874C69.5456 23.0101 69.6664 22.5828 69.6664 22.1053V20.664C69.5486 20.7407 69.3864 20.8114 69.1801 20.8762C68.9797 20.9352 68.7528 20.9912 68.4993 21.0442C68.2458 21.0914 67.9923 21.1356 67.7389 21.1769C67.4854 21.2122 67.2555 21.2447 67.0492 21.2741C66.6071 21.339 66.221 21.4421 65.8909 21.5836C65.5607 21.7251 65.3043 21.9167 65.1216 22.1584C64.9388 22.3941 64.8475 22.6889 64.8475 23.0426C64.8475 23.5554 65.0332 23.9474 65.4045 24.2186C65.7818 24.4838 66.2593 24.6165 66.837 24.6165Z" fill="white"/>
<path d="M76.329 26.9596V13.3781H79.9808V15.7478H80.1223C80.3699 14.9049 80.7854 14.2682 81.369 13.8379C81.9526 13.4017 82.6246 13.1836 83.385 13.1836C83.5737 13.1836 83.777 13.1954 83.9951 13.219C84.2132 13.2425 84.4048 13.275 84.5699 13.3162V16.6585C84.393 16.6055 84.1484 16.5583 83.836 16.5171C83.5235 16.4758 83.2377 16.4552 82.9783 16.4552C82.4242 16.4552 81.929 16.576 81.4928 16.8177C81.0625 17.0535 80.7206 17.3836 80.4671 17.808C80.2195 18.2324 80.0957 18.7217 80.0957 19.2758V26.9596H76.329Z" fill="white"/>
<path d="M89.9304 23.0514L89.9393 18.5331H90.4875L94.8378 13.3781H99.1616L93.317 20.2042H92.4239L89.9304 23.0514ZM86.5173 26.9596V8.85094H90.2841V26.9596H86.5173ZM95.0058 26.9596L91.0092 21.0442L93.5203 18.3828L99.418 26.9596H95.0058Z" fill="white"/>
<path d="M101.01 26.9596V13.3781H104.776V26.9596H101.01ZM102.902 11.6274C102.342 11.6274 101.861 11.4417 101.461 11.0703C101.066 10.693 100.868 10.2421 100.868 9.71747C100.868 9.19873 101.066 8.75367 101.461 8.3823C101.861 8.00504 102.342 7.81641 102.902 7.81641C103.462 7.81641 103.939 8.00504 104.334 8.3823C104.735 8.75367 104.936 9.19873 104.936 9.71747C104.936 10.2421 104.735 10.693 104.334 11.0703C103.939 11.4417 103.462 11.6274 102.902 11.6274Z" fill="white"/>
<path d="M115.018 13.3781V16.2076H106.839V13.3781H115.018ZM108.696 10.1242H112.462V22.7861C112.462 23.1339 112.515 23.4051 112.622 23.5996C112.728 23.7883 112.875 23.9209 113.064 23.9975C113.258 24.0742 113.482 24.1125 113.736 24.1125C113.913 24.1125 114.089 24.0977 114.266 24.0683C114.443 24.0329 114.579 24.0064 114.673 23.9887L115.265 26.7916C115.077 26.8506 114.811 26.9184 114.47 26.995C114.128 27.0775 113.712 27.1276 113.223 27.1453C112.315 27.1807 111.519 27.0598 110.835 26.7828C110.158 26.5057 109.63 26.0754 109.253 25.4918C108.875 24.9083 108.69 24.1714 108.696 23.2813V10.1242Z" fill="white"/>
<path d="M121.238 19.1078V26.9596H117.471V13.3781H121.061V15.7743H121.221C121.521 14.9844 122.025 14.3596 122.733 13.8998C123.44 13.4341 124.298 13.2013 125.306 13.2013C126.249 13.2013 127.071 13.4076 127.773 13.8202C128.474 14.2329 129.019 14.8223 129.408 15.5886C129.797 16.3491 129.992 17.2569 129.992 18.312V26.9596H126.225V18.984C126.231 18.1529 126.019 17.5044 125.589 17.0388C125.158 16.5672 124.566 16.3314 123.811 16.3314C123.304 16.3314 122.856 16.4404 122.467 16.6585C122.084 16.8767 121.783 17.195 121.565 17.6135C121.353 18.0261 121.244 18.5242 121.238 19.1078Z" fill="white"/>
<path d="M139.097 27.2249C137.724 27.2249 136.536 26.9331 135.534 26.3495C134.538 25.7601 133.768 24.9407 133.226 23.8914C132.684 22.8363 132.412 21.6131 132.412 20.2219C132.412 18.819 132.684 17.5929 133.226 16.5436C133.768 15.4884 134.538 14.6691 135.534 14.0855C136.536 13.496 137.724 13.2013 139.097 13.2013C140.471 13.2013 141.655 13.496 142.652 14.0855C143.654 14.6691 144.426 15.4884 144.968 16.5436C145.511 17.5929 145.782 18.819 145.782 20.2219C145.782 21.6131 145.511 22.8363 144.968 23.8914C144.426 24.9407 143.654 25.7601 142.652 26.3495C141.655 26.9331 140.471 27.2249 139.097 27.2249ZM139.115 24.307C139.74 24.307 140.261 24.1302 140.68 23.7765C141.098 23.4169 141.414 22.9276 141.626 22.3087C141.844 21.6897 141.953 20.9853 141.953 20.1954C141.953 19.4055 141.844 18.7011 141.626 18.0821C141.414 17.4632 141.098 16.9739 140.68 16.6143C140.261 16.2548 139.74 16.075 139.115 16.075C138.484 16.075 137.954 16.2548 137.523 16.6143C137.099 16.9739 136.778 17.4632 136.559 18.0821C136.347 18.7011 136.241 19.4055 136.241 20.1954C136.241 20.9853 136.347 21.6897 136.559 22.3087C136.778 22.9276 137.099 23.4169 137.523 23.7765C137.954 24.1302 138.484 24.307 139.115 24.307Z" fill="white"/>
<path d="M150.57 26.9596L146.874 13.3781H150.685L152.789 22.5032H152.913L155.106 13.3781H158.846L161.074 22.4501H161.189L163.258 13.3781H167.06L163.373 26.9596H159.385L157.051 18.4181H156.883L154.549 26.9596H150.57Z" fill="white"/>
<path d="M3.71564 6.97131C4.21405 8.02266 4.26079 8.77807 3.88697 9.63472C3.40414 10.7484 2.38394 11.4493 1.37153 11.2624C0.76409 11.1455 0.514883 12.6641 0.475944 13.5675C0.335765 16.9318 6.62047 21.0437 6.29339 19.7588C4.38539 12.3371 5.81055 6.87007 7.1111 4.01197C7.58615 2.98399 3.13935 5.74864 3.71564 6.97131Z" fill="white"/>
<path d="M2.07243 7.3763C1.38711 7.08036 0.592761 7.39187 0.296827 8.07719C0.000893489 8.76251 0.312403 9.55686 0.997723 9.85279C1.68304 10.1487 2.47739 9.83722 2.77333 9.1519C3.06926 8.47436 2.74996 7.68002 2.07243 7.3763Z" fill="white"/>
<path d="M1.23924 20.3896C2.39961 20.4831 3.06935 20.8257 3.63007 21.5811C4.34654 22.5546 4.45557 23.7928 3.77804 24.5716C3.37307 25.0389 4.5646 26.0201 5.3278 26.503C8.17032 28.3097 14.8756 24.9143 13.5984 24.556C6.21559 22.5001 2.19712 18.5283 0.374795 15.974C-0.287163 15.0472 -0.115829 20.2806 1.23924 20.3896Z" fill="white"/>
<path d="M0.764178 22.0173C0.164522 22.4612 0.0399204 23.3022 0.483821 23.9019C0.927722 24.5015 1.7688 24.6262 2.36845 24.1822C2.96811 23.7383 3.09271 22.8973 2.64881 22.2976C2.20491 21.7058 1.36383 21.5811 0.764178 22.0173Z" fill="white"/>
<path d="M11.6124 29.252C12.2743 28.2941 12.9051 27.8814 13.8397 27.7723C15.039 27.6322 16.1682 28.1617 16.5031 29.1352C16.7055 29.7193 18.1463 29.1819 18.9484 28.7614C21.9311 27.2038 22.3439 19.6965 21.4015 20.6232C15.9268 25.9812 10.4831 27.4842 7.36026 27.7879C6.22325 27.8969 10.8414 30.3579 11.6124 29.252Z" fill="white"/>
<path d="M12.7883 30.4747C12.8739 31.2145 13.5437 31.7441 14.2835 31.6584C15.0234 31.5727 15.5529 30.903 15.4673 30.1632C15.3816 29.4233 14.7119 28.8938 13.972 28.9794C13.24 29.0651 12.7026 29.7348 12.7883 30.4747Z" fill="white"/>
<path d="M24.4779 24.6884C23.9795 23.6371 23.9328 22.8817 24.3066 22.025C24.7894 20.9114 25.8096 20.2105 26.822 20.3974C27.4295 20.5142 27.6787 18.9956 27.7176 18.0922C27.8578 14.7279 21.5731 10.616 21.9002 11.901C23.8082 19.3227 22.383 24.7897 21.0825 27.6478C20.6074 28.6835 25.0542 25.9111 24.4779 24.6884Z" fill="white"/>
<path d="M26.1211 24.2834C26.8064 24.5793 27.6008 24.2678 27.8967 23.5825C28.1926 22.8972 27.8811 22.1028 27.1958 21.8069C26.5105 21.511 25.7161 21.8225 25.4202 22.5078C25.1243 23.1931 25.4436 23.9875 26.1211 24.2834Z" fill="white"/>
<path d="M26.9544 11.2702C25.794 11.1767 25.1243 10.834 24.5635 10.0786C23.8471 9.10517 23.738 7.86692 24.4156 7.08815C24.8205 6.62088 23.629 5.63963 22.8658 5.15679C20.0233 3.35003 13.3181 6.74549 14.5952 7.10372C21.978 9.15968 25.9965 13.1314 27.8188 15.6858C28.4808 16.6125 28.3094 11.387 26.9544 11.2702Z" fill="white"/>
<path d="M27.4295 9.64247C28.0291 9.19856 28.1538 8.35749 27.7099 7.75783C27.2659 7.15818 26.4249 7.03357 25.8252 7.47747C25.2256 7.92137 25.101 8.76245 25.5449 9.3621C25.9888 9.96176 26.8298 10.0864 27.4295 9.64247Z" fill="white"/>
<path d="M16.5811 2.41556C15.9191 3.37345 15.2883 3.78619 14.3538 3.89522C13.1545 4.0354 12.0252 3.50584 11.6904 2.53237C11.4879 1.94829 10.0471 2.48565 9.24501 2.90618C6.26231 4.46373 5.84956 11.9711 6.79187 11.0444C12.2667 5.6864 17.7103 4.18337 20.8332 3.87965C21.9702 3.76284 17.352 1.30191 16.5811 2.41556Z" fill="white"/>
<path d="M15.4051 1.19282C15.3194 0.452987 14.6497 -0.0765774 13.9099 0.00908764C13.17 0.0947527 12.6405 0.764496 12.7261 1.50433C12.8118 2.24417 13.4815 2.77373 14.2214 2.68807C14.9534 2.6024 15.4908 1.93266 15.4051 1.19282Z" fill="white"/>
</svg>
