<svg width="26" height="21" viewBox="0 0 26 21" fill="none" xmlns="http://www.w3.org/2000/svg">
<path d="M23.3529 5.97742C23.3529 5.74763 23.3482 5.52044 23.3374 5.2948C24.38 4.56287 25.2846 3.64665 26 2.59821C25.0284 3.01011 23.9946 3.27661 22.9357 3.38808C24.0377 2.74914 24.8829 1.72728 25.2822 0.500987C24.2504 1.09058 23.109 1.51209 21.8955 1.73173C20.9232 0.689294 19.5356 0.0253347 18.0016 0.000661982C15.0556 -0.0452267 12.6674 2.30041 12.6674 5.2391C12.6674 5.65681 12.7138 6.0619 12.8058 6.45308C8.36949 6.18409 4.43831 4.0084 1.80867 0.728529C1.34983 1.51434 1.08659 2.43272 1.08659 3.4169C1.08659 5.27838 2.02835 6.93283 3.45926 7.90911C2.58327 7.87178 1.76268 7.62181 1.04293 7.21197V7.28032C1.04293 9.88198 2.88224 12.0618 5.32279 12.5704C4.87537 12.6903 4.40346 12.7527 3.91811 12.7504C3.58089 12.7488 3.24477 12.7141 2.91517 12.6469C3.59332 14.7789 5.56425 16.3366 7.89762 16.3884C6.07143 17.8151 3.77098 18.6673 1.27338 18.6613C0.842745 18.6613 0.417199 18.6341 0 18.5848C2.36162 20.111 5.16493 21 8.17847 21C17.9882 21.0022 23.3529 12.9574 23.3529 5.97742Z" fill="white"/>
</svg>
